Coordinates
version=1
nRows=8
nColumns=63
inDegrees=yes

Units are S.I. units (second, meters, Newtons, ...)
If the header above contains a line with 'inDegrees', this indicates whether rotational values are in degrees (yes) or radians (no).

endheader
time	pelvis_tilt	pelvis_list	pelvis_rotation	pelvis_tx	pelvis_ty	pelvis_tz	hip_flexion_r	hip_adduction_r	hip_rotation_r	knee_angle_r	knee_angle_r_beta	ankle_angle_r	subtalar_angle_r	mtp_angle_r	hip_flexion_l	hip_adduction_l	hip_rotation_l	knee_angle_l	knee_angle_l_beta	ankle_angle_l	subtalar_angle_l	mtp_angle_l	L5_S1_Flex_Ext	L5_S1_Lat_Bending	L5_S1_axial_rotation	L4_L5_Flex_Ext	L4_L5_Lat_Bending	L4_L5_axial_rotation	L3_L4_Flex_Ext	L3_L4_Lat_Bending	L3_L4_axial_rotation	L2_L3_Flex_Ext	L2_L3_Lat_Bending	L2_L3_axial_rotation	L1_L2_Flex_Ext	L1_L2_Lat_Bending	L1_L2_axial_rotation	L1_T12_Flex_Ext	L1_T12_Lat_Bending	L1_T12_axial_rotation	Abs_r3	Abs_r2	Abs_r1	Abs_t1	Abs_t2	neck_flexion	neck_bending	neck_rotation	arm_flex_r	arm_add_r	arm_rot_r	elbow_flex_r	pro_sup_r	wrist_flex_r	wrist_dev_r	arm_flex_l	arm_add_l	arm_rot_l	elbow_flex_l	pro_sup_l	wrist_flex_l	wrist_dev_l
      1.18644068	     -3.74870599	     -2.68746239	     83.76215173	      0.10264017	      1.06669763	      0.31176245	      3.91229133	     -3.87523006	    -13.87750874	     14.12712845	      0.24656491	     37.20908275	     18.40319484	      0.00000000	      4.20895279	      2.44698064	     -8.35898147	     14.01817187	      0.24466325	     33.76560049	      7.21940229	      0.00000000	     -0.01317717	      0.16832407	      0.67123963	     -0.02447132	      0.22387101	      0.71319211	     -0.02164877	      0.40926313	      0.71319211	     -0.01506019	      0.40926313	      0.58733468	     -0.01223632	      0.34324644	      0.54538220	     -0.00752943	      0.26073398	      0.50342972	     -0.09412320	      1.90411550	      3.73323345	      0.00000000	      0.00000000	     16.76513198	     -3.22717502	      4.67552573	      3.67363121	    -17.54429140	     98.64274016	     13.90822932	      7.64629472	     -3.31627123	    -11.00545506	      0.45615490	    -15.24105768	    130.53345670	      9.56194343	      8.64142363	      2.14130716	     -3.20999530
      1.20338983	     -3.87057732	     -2.58139613	     83.43795100	      0.10347463	      1.06680956	      0.31122909	      3.66724261	     -3.93840631	    -13.21454937	     13.91441362	      0.24285233	     36.87753258	     18.33506744	      0.00000000	      4.01903166	      2.53473414	     -8.78970717	     13.94826709	      0.24344319	     33.64800957	      7.37356085	      0.00000000	     -0.00394912	      0.15185097	      0.63450018	     -0.00733390	      0.20196179	      0.67415645	     -0.00648800	      0.36921044	      0.67415645	     -0.00451344	      0.36921044	      0.55518766	     -0.00366715	      0.30965449	      0.51553140	     -0.00225652	      0.23521715	      0.47587514	     -0.02820814	      1.71776851	      3.52889967	      0.00000000	      0.00000000	     16.81602505	     -2.91732656	      5.26089740	      4.22668334	    -17.32570060	     99.14641281	     14.05092858	      7.85902491	     -3.15869415	    -11.76601049	     -0.39015975	    -15.23110838	    124.06751711	      9.24547028	      6.71754151	      3.24847499	     -2.34540800
      1.22033898	     -4.03442303	     -2.44148647	     83.21618030	      0.10441137	      1.06676186	      0.31077709	      3.37652566	     -4.06099907	    -12.78390574	     13.76523123	      0.24024861	     36.51834415	     18.22219317	      0.00000000	      3.78305293	      2.58194381	     -9.85431531	     13.86362359	      0.24196588	     33.58717071	      8.54810281	      0.00000000	     -0.00357644	      0.12243772	      0.61026235	     -0.00664180	      0.16284217	      0.64840374	     -0.00587573	      0.29769507	      0.64840374	     -0.00408751	      0.29769507	      0.53397955	     -0.00332108	      0.24967500	      0.49583816	     -0.00204358	      0.18965603	      0.45769676	     -0.02554614	      1.38503999	      3.39409609	      0.00000000	      0.00000000	     16.94977856	     -2.53925071	      5.41419554	      4.67721477	    -16.94833787	    100.17859173	     14.02105294	      7.24494360	     -2.91406718	    -12.52257239	     -1.51801082	    -16.33828572	    103.54199610	     11.66362851	     17.38348350	      0.85926515	     -0.56830812
      1.23728814	     -4.28797994	     -2.29775460	     82.97941645	      0.10540878	      1.06663539	      0.31022737	      3.10663487	     -4.29623477	    -12.40747443	     13.67957606	      0.23875364	     36.17677648	     18.07819016	      0.00000000	      3.55139848	      2.80002421	    -10.28952659	     13.75055414	      0.23999244	     33.31716005	      8.79048466	      0.00000000	     -0.00316141	      0.08204694	      0.60425820	     -0.00587105	      0.10912243	      0.64202434	     -0.00519388	      0.19948893	      0.64202434	     -0.00361317	      0.19948893	      0.52872593	     -0.00293568	      0.16731012	      0.49095979	     -0.00180643	      0.12709071	      0.45319365	     -0.02258161	      0.92813141	      3.36070285	      0.00000000	      0.00000000	     17.09688892	     -2.23457189	      5.48624057	      4.92246655	    -16.60115413	    100.19148740	     14.06484725	      7.44342672	     -2.71733867	    -12.76126539	     -1.67865312	    -16.54908862	    101.16991540	     12.13264842	     14.97175367	      0.88466308	      0.25466832
      1.25423729	     -4.52774484	     -2.18857131	     82.74783297	      0.10633311	      1.06648043	      0.30964370	      2.89787571	     -4.52889069	    -12.09750851	     13.64152063	      0.23808945	     35.85867235	     17.91644289	      0.00000000	      3.37362553	      2.97663808	    -10.94094412	     13.69073294	      0.23894837	     33.16534521	      9.32525221	      0.00000000	      0.00331613	      0.04533394	      0.60628418	      0.00615838	      0.06029414	      0.64417695	      0.00544806	      0.11022495	      0.64417695	      0.00379000	      0.11022495	      0.53049866	      0.00307936	      0.09244497	      0.49260590	      0.00189483	      0.07022228	      0.45471314	      0.02368676	      0.51282661	      3.37197075	      0.00000000	      0.00000000	     17.25770054	     -1.98896374	      5.58879451	      5.08077143	    -16.30582617	    100.27469863	     14.12644054	      7.58546329	     -2.58223086	    -12.68990810	     -1.75999214	    -16.81326912	     99.23657139	     12.81433783	     13.41513895	      0.04379259	      0.87408810
      1.27118644	     -4.71682137	     -2.03348830	     82.50033867	      0.10730801	      1.06643392	      0.30914580	      2.68602074	     -4.71636620	    -11.84104306	     13.62517467	      0.23780416	     35.70950194	     17.78657787	      0.00000000	      3.14186576	      3.03603850	    -12.23738514	     13.65781834	      0.23837390	     33.19501791	     10.71607470	      0.00000000	      0.00035734	      0.01386444	      0.63559222	      0.00066362	      0.01843970	      0.67531674	      0.00058708	      0.03370999	      0.67531674	      0.00040841	      0.03370999	      0.55614320	      0.00033183	      0.02827236	      0.51641868	      0.00020419	      0.02147601	      0.47669417	      0.00255247	      0.15683728	      3.53497327	      0.00000000	      0.00000000	     17.42188026	     -1.73421554	      5.64450040	      5.10757961	    -16.09253045	     99.90475924	     14.24566897	      8.08688265	     -2.58027296	    -12.50907273	     -2.13495340	    -17.30829979	     92.96890447	     13.86409771	     17.83604340	     -1.36934941	      1.63723798
      1.28813559	     -4.84653306	     -1.92769395	     82.33318811	      0.10795700	      1.06652114	      0.30858450	      2.52845730	     -4.83897383	    -11.69321393	     13.51512902	      0.23588350	     35.68313395	     17.75264788	      0.00000000	      2.93445304	      3.19202534	    -12.20947619	     13.49437685	      0.23552131	     33.01232804	     10.45442951	      0.00000000	      0.00467515	     -0.00590073	      0.67186775	      0.00868222	     -0.00784798	      0.71385948	      0.00768080	     -0.01434705	      0.71385948	      0.00534323	     -0.01434705	      0.58788428	      0.00434134	     -0.01203278	      0.54589254	      0.00267138	     -0.00914024	      0.50390081	      0.03339411	     -0.06675029	      3.73672685	      0.00000000	      0.00000000	     17.62362807	     -1.43419258	      5.91593961	      5.08770757	    -15.85700322	    100.68656999	     14.08538373	      7.70530510	     -2.42137529	    -12.36209057	     -2.30740183	    -17.58050360	     89.23722781	     14.39103717	     21.48144182	     -2.09267231	      2.10940905
      1.30508475	     -4.88686911	     -1.82737052	     82.02931338	      0.10864684	      1.06677909	      0.30803510	      2.43821650	     -4.85829852	    -11.33793225	     13.36813968	      0.23331805	     35.77071486	     17.78304001	      0.00000000	      2.71727652	      3.21580539	    -12.71037175	     13.36408858	      0.23324735	     33.00176164	     10.73119476	      0.00000000	      0.00934269	     -0.00984346	      0.74257281	      0.01735032	     -0.01309181	      0.78898361	      0.01534911	     -0.02393340	      0.78898361	      0.01067776	     -0.02393340	      0.64975120	      0.00867562	     -0.02007279	      0.60334040	      0.00533841	     -0.01524753	      0.55692960	      0.06673392	     -0.11135124	      4.12996717	      0.00000000	      0.00000000	     17.78502938	     -1.11487608	      6.46319491	      5.01308549	    -15.74971947	    101.31254575	     13.99006649	      7.59004311	     -2.34093091	    -12.31474189	     -2.20314433	    -17.63640343	     88.31184627	     14.53296919	     23.23029252	     -2.59985280	      2.08758981
